<svg xmlns="http://www.w3.org/2000/svg" viewBox="0 0 32 32">
  <defs>
    <linearGradient id="g" x1="0%" y1="0%" x2="100%" y2="100%">
      <stop offset="0%" stop-color="#10B981"/>
      <stop offset="100%" stop-color="#059669"/>
    </linearGradient>
  </defs>
  <rect width="32" height="32" rx="8" fill="url(#g)"/>
  <path d="M16 6c-2.2 0-4 1.3-4 3v3h-1c-.6 0-1 .4-1 1v12c0 .6.4 1 1 1h10c.6 0 1-.4 1-1V13c0-.6-.4-1-1-1h-1V9c0-1.7-1.8-3-4-3zm-2 6V9c0-.6 1-1 2-1s2 .4 2 1v3h-4zm2 4a2 2 0 110 4 2 2 0 010-4z" fill="#fff" opacity=".9"/>
</svg>